<svg width="49" height="48" viewBox="0 0 49 48" fill="none" xmlns="http://www.w3.org/2000/svg">
<g clip-path="url(#clip0_1302_1421)">
<path d="M8.5 36H12.5V40H36.5V8H12.5V12H8.5V6C8.5 5.46957 8.71071 4.96086 9.08579 4.58579C9.46086 4.21071 9.96957 4 10.5 4H38.5C39.0304 4 39.5391 4.21071 39.9142 4.58579C40.2893 4.96086 40.5 5.46957 40.5 6V42C40.5 42.5304 40.2893 43.0391 39.9142 43.4142C39.5391 43.7893 39.0304 44 38.5 44H10.5C9.96957 44 9.46086 43.7893 9.08579 43.4142C8.71071 43.0391 8.5 42.5304 8.5 42V36ZM12.5 22H26.5V26H12.5V32L2.5 24L12.5 16V22Z" fill="#374151"/>
</g>
<defs>
<clipPath id="clip0_1302_1421">
<rect width="48" height="48" fill="white" transform="translate(0.5)"/>
</clipPath>
</defs>
</svg>
