<svg width="49" height="48" viewBox="0 0 49 48" fill="none" xmlns="http://www.w3.org/2000/svg">
<g clip-path="url(#clip0_1302_1344)">
<path d="M18.5 6H30.5L34.5 10H42.5C43.0304 10 43.5391 10.2107 43.9142 10.5858C44.2893 10.9609 44.5 11.4696 44.5 12V40C44.5 40.5304 44.2893 41.0391 43.9142 41.4142C43.5391 41.7893 43.0304 42 42.5 42H6.5C5.96957 42 5.46086 41.7893 5.08579 41.4142C4.71071 41.0391 4.5 40.5304 4.5 40V12C4.5 11.4696 4.71071 10.9609 5.08579 10.5858C5.46086 10.2107 5.96957 10 6.5 10H14.5L18.5 6ZM24.5 38C27.6826 38 30.7348 36.7357 32.9853 34.4853C35.2357 32.2348 36.5 29.1826 36.5 26C36.5 22.8174 35.2357 19.7652 32.9853 17.5147C30.7348 15.2643 27.6826 14 24.5 14C21.3174 14 18.2652 15.2643 16.0147 17.5147C13.7643 19.7652 12.5 22.8174 12.5 26C12.5 29.1826 13.7643 32.2348 16.0147 34.4853C18.2652 36.7357 21.3174 38 24.5 38ZM24.5 34C22.3783 34 20.3434 33.1571 18.8431 31.6569C17.3429 30.1566 16.5 28.1217 16.5 26C16.5 23.8783 17.3429 21.8434 18.8431 20.3431C20.3434 18.8429 22.3783 18 24.5 18C26.6217 18 28.6566 18.8429 30.1569 20.3431C31.6571 21.8434 32.5 23.8783 32.5 26C32.5 28.1217 31.6571 30.1566 30.1569 31.6569C28.6566 33.1571 26.6217 34 24.5 34Z" fill="#374151"/>
</g>
<defs>
<clipPath id="clip0_1302_1344">
<rect width="48" height="48" fill="white" transform="translate(0.5)"/>
</clipPath>
</defs>
</svg>
