<svg width="48" height="48" viewBox="0 0 48 48" fill="none" xmlns="http://www.w3.org/2000/svg">
<g clip-path="url(#clip0_1294_1385)">
<path d="M16 36H36.474L40 38.77V18H42C42.5304 18 43.0391 18.2107 43.4142 18.5858C43.7893 18.9609 44 19.4696 44 20V47L35.09 40H18C17.4696 40 16.9609 39.7893 16.5858 39.4142C16.2107 39.0391 16 38.5304 16 38V36ZM10.91 32L2 39V8C2 7.46957 2.21071 6.96086 2.58579 6.58579C2.96086 6.21071 3.46957 6 4 6H34C34.5304 6 35.0391 6.21071 35.4142 6.58579C35.7893 6.96086 36 7.46957 36 8V32H10.91Z" fill="#374151"/>
</g>
<defs>
<clipPath id="clip0_1294_1385">
<rect width="48" height="48" fill="white"/>
</clipPath>
</defs>
</svg>
