<svg width="25" height="24" viewBox="0 0 25 24" fill="none" xmlns="http://www.w3.org/2000/svg">
<g clip-path="url(#clip0_1212_1236)">
<path d="M2.5 22C2.5 19.8783 3.34285 17.8434 4.84315 16.3431C6.34344 14.8429 8.37827 14 10.5 14C12.6217 14 14.6566 14.8429 16.1569 16.3431C17.6571 17.8434 18.5 19.8783 18.5 22H2.5ZM10.5 13C7.185 13 4.5 10.315 4.5 7C4.5 3.685 7.185 1 10.5 1C13.815 1 16.5 3.685 16.5 7C16.5 10.315 13.815 13 10.5 13ZM17.863 15.233C19.3926 15.6261 20.7593 16.4918 21.7683 17.7068C22.7774 18.9218 23.3774 20.4242 23.483 22H20.5C20.5 19.39 19.5 17.014 17.863 15.233ZM15.84 12.957C16.678 12.2075 17.3482 11.2893 17.8066 10.2627C18.265 9.23616 18.5013 8.12429 18.5 7C18.5021 5.63347 18.1526 4.28937 17.485 3.097C18.6176 3.32459 19.6365 3.93737 20.3685 4.8312C21.1004 5.72502 21.5002 6.84473 21.5 8C21.5003 8.71247 21.3482 9.41676 21.0541 10.0657C20.76 10.7146 20.3305 11.2931 19.7946 11.7625C19.2586 12.2319 18.6285 12.5814 17.9464 12.7874C17.2644 12.9934 16.5462 13.0512 15.84 12.957Z" fill="#1F2937"/>
</g>
<defs>
<clipPath id="clip0_1212_1236">
<rect width="24" height="24" fill="white" transform="translate(0.5)"/>
</clipPath>
</defs>
</svg>
