<svg width="25" height="24" viewBox="0 0 25 24" fill="none" xmlns="http://www.w3.org/2000/svg">
<g clip-path="url(#clip0_1212_1234)">
<path d="M21.1667 20C21.1667 20.2652 21.0613 20.5196 20.8738 20.7071C20.6863 20.8946 20.4319 21 20.1667 21H4.16669C3.90147 21 3.64712 20.8946 3.45958 20.7071C3.27204 20.5196 3.16669 20.2652 3.16669 20V9.49C3.16658 9.33761 3.2013 9.18721 3.2682 9.0503C3.3351 8.91338 3.43241 8.79356 3.55269 8.7L11.5527 2.478C11.7282 2.34144 11.9443 2.2673 12.1667 2.2673C12.3891 2.2673 12.6051 2.34144 12.7807 2.478L20.7807 8.7C20.901 8.79356 20.9983 8.91338 21.0652 9.0503C21.1321 9.18721 21.1668 9.33761 21.1667 9.49V20Z" fill="#1F2937"/>
</g>
<defs>
<clipPath id="clip0_1212_1234">
<rect width="24" height="24" fill="white" transform="translate(0.166687)"/>
</clipPath>
</defs>
</svg>
