<svg width="24" height="24" viewBox="0 0 24 24" fill="none" xmlns="http://www.w3.org/2000/svg">
<g clip-path="url(#clip0_1277_1559)">
<path d="M17.084 15.812C18.0244 14.8184 18.653 13.571 18.8922 12.224C19.1314 10.877 18.9706 9.48941 18.4297 8.2328C17.8888 6.97618 16.9916 5.90559 15.8489 5.15337C14.7062 4.40115 13.3681 4.00026 12 4.00026C10.6319 4.00026 9.29384 4.40115 8.15112 5.15337C7.00841 5.90559 6.11117 6.97618 5.5703 8.2328C5.02943 9.48941 4.86863 10.877 5.1078 12.224C5.34696 13.571 5.9756 14.8184 6.916 15.812C7.45567 14.9509 8.20536 14.241 9.09467 13.7491C9.98398 13.2572 10.9837 12.9995 12 13C13.0163 12.9995 14.016 13.2572 14.9053 13.7491C15.7946 14.241 16.5443 14.9509 17.084 15.812ZM12 23.728L5.636 17.364C4.37734 16.1053 3.52019 14.5017 3.17293 12.7559C2.82567 11.01 3.00391 9.20044 3.6851 7.55591C4.36629 5.91139 5.51984 4.50579 6.99988 3.51686C8.47992 2.52793 10.22 2.00009 12 2.00009C13.78 2.00009 15.5201 2.52793 17.0001 3.51686C18.4802 4.50579 19.6337 5.91139 20.3149 7.55591C20.9961 9.20044 21.1743 11.01 20.8271 12.7559C20.4798 14.5017 19.6227 16.1053 18.364 17.364L12 23.728ZM12 12C11.2044 12 10.4413 11.6839 9.87868 11.1213C9.31607 10.5587 9 9.79566 9 9.00001C9 8.20436 9.31607 7.4413 9.87868 6.87869C10.4413 6.31608 11.2044 6.00001 12 6.00001C12.7957 6.00001 13.5587 6.31608 14.1213 6.87869C14.6839 7.4413 15 8.20436 15 9.00001C15 9.79566 14.6839 10.5587 14.1213 11.1213C13.5587 11.6839 12.7957 12 12 12Z" fill="#FCD34D"/>
</g>
<defs>
<clipPath id="clip0_1277_1559">
<rect width="24" height="24" fill="white"/>
</clipPath>
</defs>
</svg>
