<svg width="24" height="24" viewBox="0 0 24 24" fill="none" xmlns="http://www.w3.org/2000/svg">
<path d="M8.97298 21.3362C10.4183 22.9665 11.6658 24 12.0721 24C12.4754 24 13.6901 22.9815 15.0991 21.3717L12.0721 12.0706L8.97298 21.3362Z" fill="#FCD34D"/>
<path d="M12.0721 12.0706C10.3804 12.0706 9.00902 10.6992 9.00902 9.00749C9.00902 8.28519 9.25903 7.62128 9.67723 7.09758C10.2385 6.39474 11.1027 5.94443 12.0721 5.94443H20.4744C19.2204 2.47756 15.8995 0 12 0C9.377 0 7.01581 1.12098 5.36938 2.91C3.89271 4.51455 2.991 6.65648 2.991 9.00901C2.991 13.3267 6.31633 18.3396 8.97298 21.3362L12.0721 12.0706Z" fill="#3B82F6"/>
<path d="M15.1351 9.00749C15.1351 10.6992 13.7638 12.0706 12.0721 12.0706L15.0991 21.3717C17.7183 18.3793 21.009 13.3437 21.009 9.00901C21.009 8.48641 20.9645 7.9742 20.8791 7.47596C20.8791 7.47596 15.5114 7.47596 12.0721 7.47596C12.0721 9.00749 15.1351 9.00749 15.1351 9.00749Z" fill="#10B981"/>
</svg>
