<svg width="22" height="31" viewBox="0 0 22 31" fill="none" xmlns="http://www.w3.org/2000/svg">
<mask id="path-1-outside-1_1209_1066" maskUnits="userSpaceOnUse" x="-8.05956" y="-4.41394" width="36.7696" height="36.7696" fill="black">
<rect fill="white" x="-8.05956" y="-4.41394" width="36.7696" height="36.7696"/>
<path d="M15.3902 22.6944C15.8784 23.1825 15.8784 23.974 15.3902 24.4621L11.8547 27.9977C11.3666 28.4858 10.5751 28.4858 10.0869 27.9977L6.55141 24.4621C6.06326 23.974 6.06326 23.1825 6.55142 22.6944L7.55059 21.6952C8.03874 21.2071 8.8302 21.2071 9.31836 21.6952L10.087 22.4638C10.5751 22.952 11.3666 22.952 11.8547 22.4638L12.6233 21.6952C13.1115 21.2071 13.9029 21.2071 14.3911 21.6952L15.3902 22.6944Z"/>
<path d="M2.32885 13.0814C2.58482 14.3682 3.12573 15.5756 3.90567 16.6176C4.31935 17.1703 5.11927 17.1658 5.60743 16.6777L10.0268 12.2583L6.04948 4.09901C4.61056 5.06048 3.48905 6.42704 2.82678 8.02589C2.16451 9.62475 1.99123 11.3841 2.32885 13.0814Z"/>
<path d="M10.9107 2.62438C9.18014 2.62438 7.48841 3.13755 6.04948 4.09901L10.0268 12.2583C10.515 11.7701 11.3065 11.7701 11.7946 12.2583L16.214 16.6777C16.7022 17.1658 17.5021 17.1703 17.9158 16.6176C18.6957 15.5756 19.2366 14.3682 19.4926 13.0814C19.8302 11.3841 19.6569 9.62475 18.9947 8.02589C18.3324 6.42704 17.2109 5.06047 15.772 4.09901C14.333 3.13755 12.6413 2.62438 10.9107 2.62438Z"/>
</mask>
<path d="M15.3902 22.6944C15.8784 23.1825 15.8784 23.974 15.3902 24.4621L11.8547 27.9977C11.3666 28.4858 10.5751 28.4858 10.0869 27.9977L6.55141 24.4621C6.06326 23.974 6.06326 23.1825 6.55142 22.6944L7.55059 21.6952C8.03874 21.2071 8.8302 21.2071 9.31836 21.6952L10.087 22.4638C10.5751 22.952 11.3666 22.952 11.8547 22.4638L12.6233 21.6952C13.1115 21.2071 13.9029 21.2071 14.3911 21.6952L15.3902 22.6944Z" fill="#FCD34D"/>
<path d="M2.32885 13.0814C2.58482 14.3682 3.12573 15.5756 3.90567 16.6176C4.31935 17.1703 5.11927 17.1658 5.60743 16.6777L10.0268 12.2583L6.04948 4.09901C4.61056 5.06048 3.48905 6.42704 2.82678 8.02589C2.16451 9.62475 1.99123 11.3841 2.32885 13.0814Z" fill="#3B82F6"/>
<path d="M10.9107 2.62438C9.18014 2.62438 7.48841 3.13755 6.04948 4.09901L10.0268 12.2583C10.515 11.7701 11.3065 11.7701 11.7946 12.2583L16.214 16.6777C16.7022 17.1658 17.5021 17.1703 17.9158 16.6176C18.6957 15.5756 19.2366 14.3682 19.4926 13.0814C19.8302 11.3841 19.6569 9.62475 18.9947 8.02589C18.3324 6.42704 17.2109 5.06047 15.772 4.09901C14.333 3.13755 12.6413 2.62438 10.9107 2.62438Z" fill="#10B981"/>
<path d="M10.9257 11.8201L6.94837 3.66083L5.1506 4.53719L9.12795 12.6964L10.9257 11.8201ZM2.32885 13.0814L4.29043 12.6912L2.32885 13.0814ZM19.4926 13.0814L17.531 12.6912L19.4926 13.0814ZM11.7946 12.2583L10.3804 13.6725L11.7946 12.2583ZM17.9158 16.6176L19.5169 17.8161L17.9158 16.6176ZM16.214 16.6777L17.6282 15.2635L16.214 16.6777ZM3.90567 16.6176L5.50682 15.4192L3.90567 16.6176ZM5.50682 15.4192C4.90515 14.6153 4.48788 13.6839 4.29043 12.6912L0.367284 13.4716C0.681761 15.0526 1.34632 16.5359 2.30451 17.8161L5.50682 15.4192ZM4.29043 12.6912C4.02998 11.3819 4.16365 10.0247 4.67454 8.79126L0.979022 7.26053C0.165381 9.22483 -0.0475072 11.3863 0.367284 13.4716L4.29043 12.6912ZM4.67454 8.79126C5.18543 7.55786 6.0506 6.50365 7.16063 5.76195L4.93834 2.43607C3.17051 3.6173 1.79266 5.29622 0.979022 7.26053L4.67454 8.79126ZM7.16063 5.76195C8.27065 5.02025 9.5757 4.62438 10.9107 4.62438L10.9107 0.624376C8.78458 0.624375 6.70617 1.25485 4.93834 2.43607L7.16063 5.76195ZM10.9107 4.62438C12.2458 4.62438 13.5508 5.02025 14.6608 5.76195L16.8831 2.43607C15.1153 1.25485 13.0369 0.624375 10.9107 0.624376L10.9107 4.62438ZM14.6608 5.76195C15.7709 6.50365 16.636 7.55786 17.1469 8.79126L20.8424 7.26053C20.0288 5.29622 18.6509 3.6173 16.8831 2.43607L14.6608 5.76195ZM17.1469 8.79126C17.6578 10.0247 17.7915 11.3819 17.531 12.6912L21.4542 13.4716C21.869 11.3863 21.6561 9.22483 20.8424 7.26053L17.1469 8.79126ZM17.531 12.6912C17.3336 13.6839 16.9163 14.6153 16.3146 15.4192L19.5169 17.8161C20.4751 16.5359 21.1397 15.0526 21.4542 13.4716L17.531 12.6912ZM17.6282 15.2635L13.2088 10.844L10.3804 13.6725L14.7998 18.0919L17.6282 15.2635ZM8.61263 10.844L4.19321 15.2635L7.02164 18.0919L11.4411 13.6725L8.61263 10.844ZM13.2088 10.844C11.9396 9.57484 9.88183 9.57484 8.61263 10.844L11.4411 13.6725C11.1482 13.9654 10.6733 13.9654 10.3804 13.6725L13.2088 10.844ZM16.3146 15.4192C16.5035 15.1668 16.794 15.0441 17.0484 15.0385C17.2847 15.0332 17.4887 15.1239 17.6282 15.2635L14.7998 18.0919C16.0044 19.2965 18.256 19.5008 19.5169 17.8161L16.3146 15.4192ZM2.30451 17.8161C3.56548 19.5008 5.81703 19.2965 7.02164 18.0919L4.19321 15.2635C4.33274 15.1239 4.53671 15.0332 4.77303 15.0385C5.02743 15.0441 5.31793 15.1668 5.50682 15.4192L2.30451 17.8161ZM13.976 23.0479L10.4405 26.5835L13.2689 29.4119L16.8045 25.8764L13.976 23.0479ZM12.9769 23.1094L13.976 24.1086L16.8045 21.2802L15.8053 20.281L12.9769 23.1094ZM7.96563 24.1086L8.9648 23.1094L6.13637 20.281L5.1372 21.2802L7.96563 24.1086ZM7.90414 23.1094L8.67274 23.878L11.5012 21.0496L10.7326 20.281L7.90414 23.1094ZM13.2689 23.878L14.0375 23.1094L11.2091 20.281L10.4405 21.0496L13.2689 23.878ZM8.9648 23.1094C8.67191 23.4023 8.19704 23.4023 7.90414 23.1094L10.7326 20.281C9.46336 19.0118 7.40557 19.0118 6.13637 20.281L8.9648 23.1094ZM8.67274 23.878C9.94194 25.1472 11.9997 25.1472 13.2689 23.878L10.4405 21.0496C10.7334 20.7567 11.2083 20.7567 11.5012 21.0496L8.67274 23.878ZM15.8053 20.281C14.5361 19.0118 12.4783 19.0118 11.2091 20.281L14.0375 23.1094C13.7446 23.4023 13.2698 23.4023 12.9769 23.1094L15.8053 20.281ZM10.4405 26.5835C10.7334 26.2906 11.2083 26.2906 11.5012 26.5835L8.67274 29.4119C9.94194 30.6811 11.9997 30.6811 13.2689 29.4119L10.4405 26.5835ZM7.96563 23.0479C8.25852 23.3408 8.25852 23.8157 7.96563 24.1086L5.1372 21.2802C3.868 22.5494 3.86799 24.6072 5.1372 25.8764L7.96563 23.0479ZM16.8045 25.8764C18.0737 24.6072 18.0737 22.5494 16.8045 21.2802L13.976 24.1086C13.6831 23.8157 13.6831 23.3408 13.976 23.0479L16.8045 25.8764ZM11.5012 26.5835L7.96563 23.0479L5.1372 25.8764L8.67274 29.4119L11.5012 26.5835Z" fill="#4B5563" mask="url(#path-1-outside-1_1209_1066)"/>
</svg>
