<svg width="512" height="512" viewBox="0 0 512 512" fill="none" xmlns="http://www.w3.org/2000/svg">
<path d="M214 386.04C234.054 408.66 251.362 423 257 423C262.597 423 279.45 408.868 299 386.532L257 257.479L214 386.04Z" fill="#FCD34D"/>
<path d="M257 257.479C233.528 257.479 214.5 238.451 214.5 214.979C214.5 204.957 217.969 195.745 223.771 188.479C231.559 178.727 243.55 172.479 257 172.479H373.582C356.183 124.376 310.106 90 256 90C219.606 90 186.844 105.554 164 130.376C143.511 152.639 131 182.359 131 215C131 274.907 177.139 344.462 214 386.04L257 257.479Z" fill="#3B82F6"/>
<path d="M299.5 214.979C299.5 238.451 280.472 257.479 257 257.479L299 386.532C335.341 345.012 381 275.144 381 215C381 207.749 380.383 200.642 379.197 193.729C379.197 193.729 304.721 193.729 257 193.729C257 214.979 299.5 214.979 299.5 214.979Z" fill="#10B981"/>
</svg>
