<svg width="192" height="192" viewBox="0 0 192 192" fill="none" xmlns="http://www.w3.org/2000/svg">
<g clip-path="url(#clip0_1272_1172)">
<mask id="path-1-outside-1_1272_1172" maskUnits="userSpaceOnUse" x="-11.6468" y="-22.3625" width="214.96" height="214.96" fill="black">
<rect fill="white" x="-11.6468" y="-22.3625" width="214.96" height="214.96"/>
<path d="M124.545 141.223C127.679 144.357 127.675 149.442 124.536 152.581L101.801 175.316C98.6625 178.455 93.577 178.459 90.4429 175.325L67.7436 152.626C64.6095 149.492 64.6135 144.406 67.7525 141.267L74.1776 134.842C77.3167 131.703 82.4021 131.699 85.5362 134.833L90.4709 139.768C93.605 142.902 98.6904 142.898 101.829 139.759L106.772 134.817C109.911 131.678 114.996 131.674 118.13 134.808L124.545 141.223Z"/>
<path d="M40.6695 79.5216C42.3077 87.7887 45.7772 95.5438 50.7833 102.235C53.4385 105.784 58.5784 105.751 61.7174 102.612L90.1361 74.1937L64.6212 21.7876C55.3707 27.9726 48.1577 36.759 43.8944 47.0355C39.631 57.3121 38.5087 68.6173 40.6695 79.5216Z"/>
<path d="M95.864 12.288C84.7443 12.2967 73.8718 15.6026 64.6212 21.7876L90.1361 74.1937C93.2751 71.0547 98.3605 71.0507 101.495 74.1848L129.869 102.559C133.003 105.693 138.143 105.718 140.804 102.165C145.82 95.4653 149.302 87.7047 150.953 79.4351C153.131 68.5274 152.026 57.2239 147.779 46.954C143.532 36.6841 136.333 27.909 127.092 21.7386C117.851 15.5681 106.984 12.2792 95.864 12.288Z"/>
</mask>
<path d="M124.545 141.223C127.679 144.357 127.675 149.442 124.536 152.581L101.801 175.316C98.6625 178.455 93.577 178.459 90.4429 175.325L67.7436 152.626C64.6095 149.492 64.6135 144.406 67.7525 141.267L74.1776 134.842C77.3167 131.703 82.4021 131.699 85.5362 134.833L90.4709 139.768C93.605 142.902 98.6904 142.898 101.829 139.759L106.772 134.817C109.911 131.678 114.996 131.674 118.13 134.808L124.545 141.223Z" fill="#FCD34D"/>
<path d="M40.6695 79.5216C42.3077 87.7887 45.7772 95.5438 50.7833 102.235C53.4385 105.784 58.5784 105.751 61.7174 102.612L90.1361 74.1937L64.6212 21.7876C55.3707 27.9726 48.1577 36.759 43.8944 47.0355C39.631 57.3121 38.5087 68.6173 40.6695 79.5216Z" fill="#3B82F6"/>
<path d="M95.864 12.288C84.7443 12.2967 73.8718 15.6026 64.6212 21.7876L90.1361 74.1937C93.2751 71.0547 98.3605 71.0507 101.495 74.1848L129.869 102.559C133.003 105.693 138.143 105.718 140.804 102.165C145.82 95.4653 149.302 87.7047 150.953 79.4351C153.131 68.5274 152.026 57.2239 147.779 46.954C143.532 36.6841 136.333 27.909 127.092 21.7386C117.851 15.5681 106.984 12.2792 95.864 12.288Z" fill="#10B981"/>
<path d="M93.7325 72.4427L68.2176 20.0366L61.0248 23.5386L86.5397 75.9447L93.7325 72.4427ZM40.6695 79.5216L48.5169 77.9666L48.5169 77.9666L40.6695 79.5216ZM150.953 79.4351L143.108 77.8687L143.108 77.8687L150.953 79.4351ZM101.495 74.1848L95.8378 79.8417L101.495 74.1848ZM140.804 102.165L147.207 106.96L140.804 102.165ZM129.869 102.559L135.526 96.9021L129.869 102.559ZM50.7833 102.235L57.189 97.4428L50.7833 102.235ZM57.189 97.4428C52.8968 91.7057 49.9218 85.0561 48.5169 77.9666L32.8221 81.0767C34.6936 90.5213 38.6575 99.3819 44.3776 107.028L57.189 97.4428ZM48.5169 77.9666C46.6639 68.6153 47.6259 58.918 51.2837 50.1011L36.505 43.97C31.6361 55.7062 30.3536 68.6193 32.8221 81.0767L48.5169 77.9666ZM51.2837 50.1011C54.9415 41.2841 61.1305 33.745 69.0678 28.438L60.1747 15.1372C49.611 22.2002 41.3739 32.2338 36.505 43.97L51.2837 50.1011ZM69.0678 28.438C77.0051 23.131 86.3327 20.2955 95.8703 20.288L95.8577 4.28798C83.1559 4.29795 70.7384 8.07411 60.1747 15.1372L69.0678 28.438ZM95.8703 20.288C105.408 20.2805 114.726 23.1012 122.649 28.3916L131.534 15.0855C120.976 8.03489 108.56 4.27801 95.8577 4.28798L95.8703 20.288ZM122.649 28.3916C130.572 33.682 136.745 41.2055 140.386 50.0113L155.172 43.8966C150.319 32.1627 142.093 22.1361 131.534 15.0855L122.649 28.3916ZM140.386 50.0113C144.028 58.8173 144.976 68.5116 143.108 77.8687L158.798 81.0015C161.286 68.5431 160.025 55.6304 155.172 43.8966L140.386 50.0113ZM143.108 77.8687C141.691 84.9627 138.704 91.621 134.4 97.3693L147.207 106.96C152.936 99.3096 156.912 90.4468 158.798 81.0015L143.108 77.8687ZM135.526 96.9021L107.152 68.528L95.8378 79.8417L124.212 108.216L135.526 96.9021ZM84.4792 68.5369L56.0606 96.9556L67.3743 108.269L95.793 79.8506L84.4792 68.5369ZM107.152 68.528C100.885 62.2613 90.7341 62.282 84.4792 68.5369L95.793 79.8506C95.7982 79.8453 95.8019 79.8421 95.8039 79.8405C95.8058 79.8389 95.8068 79.8383 95.8069 79.8383C95.8069 79.8382 95.8066 79.8384 95.8061 79.8387C95.8055 79.839 95.8051 79.8392 95.8049 79.8392C95.8046 79.8394 95.8112 79.8368 95.8235 79.8368C95.8358 79.8368 95.8406 79.8394 95.8369 79.8379C95.8346 79.8369 95.8318 79.8355 95.8296 79.834C95.827 79.8323 95.8298 79.8336 95.8378 79.8417L107.152 68.528ZM134.4 97.3693C134.493 97.2453 134.653 97.1009 134.862 96.9975C135.057 96.9005 135.225 96.874 135.33 96.8716C135.517 96.8673 135.555 96.9317 135.526 96.9021L124.212 108.216C130.222 114.226 141.165 115.029 147.207 106.96L134.4 97.3693ZM44.3776 107.028C50.4298 115.117 61.3797 114.264 67.3743 108.269L56.0606 96.9556C56.0225 96.9936 56.0535 96.9297 56.2403 96.9337C56.3456 96.936 56.5154 96.9623 56.7153 97.0611C56.9282 97.1663 57.0926 97.314 57.189 97.4428L44.3776 107.028ZM118.88 146.924L96.1446 169.659L107.458 180.973L130.193 158.238L118.88 146.924ZM112.474 140.465L118.889 146.88L130.202 135.566L123.787 129.151L112.474 140.465ZM73.4094 146.924L79.8345 140.499L68.5208 129.185L62.0957 135.61L73.4094 146.924ZM79.8794 140.49L84.814 145.425L96.1277 134.111L91.1931 129.176L79.8794 140.49ZM107.486 145.416L112.429 140.473L101.115 129.16L96.1726 134.102L107.486 145.416ZM79.8345 140.499C79.8398 140.494 79.8435 140.491 79.8454 140.489C79.8474 140.487 79.8484 140.487 79.8484 140.487C79.8485 140.487 79.8482 140.487 79.8476 140.487C79.8471 140.487 79.8467 140.488 79.8465 140.488C79.8461 140.488 79.8528 140.485 79.8651 140.485C79.8773 140.485 79.8821 140.488 79.8785 140.486C79.8762 140.485 79.8734 140.484 79.8712 140.483C79.8686 140.481 79.8713 140.482 79.8794 140.49L91.1931 129.176C84.9264 122.91 74.7756 122.93 68.5208 129.185L79.8345 140.499ZM84.814 145.425C91.0807 151.691 101.231 151.671 107.486 145.416L96.1726 134.102C96.1673 134.107 96.1636 134.111 96.1616 134.112C96.1597 134.114 96.1587 134.114 96.1586 134.114C96.1586 134.114 96.1589 134.114 96.1594 134.114C96.16 134.114 96.1604 134.114 96.1606 134.113C96.1609 134.113 96.1543 134.116 96.142 134.116C96.1297 134.116 96.1249 134.113 96.1286 134.115C96.1309 134.116 96.1337 134.117 96.1359 134.119C96.1385 134.12 96.1358 134.119 96.1277 134.111L84.814 145.425ZM123.787 129.151C117.521 122.884 107.37 122.905 101.115 129.16L112.429 140.473C112.434 140.468 112.438 140.465 112.44 140.463C112.442 140.462 112.443 140.461 112.443 140.461C112.443 140.461 112.442 140.461 112.442 140.462C112.441 140.462 112.441 140.462 112.441 140.462C112.44 140.462 112.447 140.46 112.459 140.46C112.471 140.46 112.476 140.462 112.473 140.461C112.47 140.46 112.468 140.458 112.465 140.457C112.463 140.455 112.465 140.456 112.474 140.465L123.787 129.151ZM96.1446 169.659C96.1394 169.665 96.1357 169.668 96.1337 169.669C96.1318 169.671 96.1308 169.672 96.1307 169.672C96.1307 169.672 96.131 169.672 96.1315 169.671C96.132 169.671 96.1325 169.671 96.1326 169.671C96.133 169.671 96.1264 169.673 96.1141 169.673C96.1018 169.673 96.097 169.671 96.1007 169.672C96.103 169.673 96.1058 169.674 96.108 169.676C96.1106 169.678 96.1078 169.676 96.0998 169.668L84.7861 180.982C91.0528 187.249 101.203 187.228 107.458 180.973L96.1446 169.659ZM73.4005 146.969C73.3924 146.961 73.3911 146.958 73.3929 146.961C73.3943 146.963 73.3958 146.966 73.3967 146.968C73.3982 146.972 73.3956 146.967 73.3957 146.955C73.3957 146.942 73.3982 146.936 73.3981 146.936C73.398 146.936 73.3978 146.937 73.3975 146.937C73.3972 146.938 73.397 146.938 73.3971 146.938C73.3971 146.938 73.3978 146.937 73.3994 146.935C73.401 146.933 73.4041 146.929 73.4094 146.924L62.0957 135.61C55.8408 141.865 55.8201 152.016 62.0868 158.283L73.4005 146.969ZM130.193 158.238C136.448 151.983 136.469 141.833 130.202 135.566L118.889 146.88C118.897 146.888 118.898 146.89 118.896 146.888C118.895 146.886 118.893 146.883 118.892 146.88C118.891 146.877 118.893 146.882 118.893 146.894C118.893 146.906 118.891 146.913 118.891 146.912C118.891 146.912 118.891 146.912 118.891 146.911C118.892 146.911 118.892 146.91 118.892 146.91C118.892 146.911 118.891 146.912 118.89 146.913C118.888 146.915 118.885 146.919 118.88 146.924L130.193 158.238ZM96.0998 169.668L73.4005 146.969L62.0868 158.283L84.7861 180.982L96.0998 169.668Z" fill="#4B5563" mask="url(#path-1-outside-1_1272_1172)"/>
</g>
<defs>
<clipPath id="clip0_1272_1172">
<rect width="192" height="192" fill="white"/>
</clipPath>
</defs>
</svg>
