<svg width="512" height="512" viewBox="0 0 512 512" fill="none" xmlns="http://www.w3.org/2000/svg">
<g clip-path="url(#clip0_1275_1171)">
<mask id="path-1-outside-1_1275_1171" maskUnits="userSpaceOnUse" x="-34.5936" y="-64.3069" width="580.535" height="580.535" fill="black">
<rect fill="white" x="-34.5936" y="-64.3069" width="580.535" height="580.535"/>
<path d="M332.121 375.927C340.479 384.285 340.468 397.846 332.097 406.217L271.471 466.843C263.1 475.214 249.539 475.225 241.181 466.867L180.65 406.336C172.292 397.978 172.303 384.417 180.673 376.046L197.807 358.913C206.178 350.542 219.739 350.531 228.097 358.889L241.256 372.048C249.613 380.405 263.174 380.395 271.545 372.024L284.725 358.844C293.096 350.473 306.657 350.463 315.014 358.821L332.121 375.927Z"/>
<path d="M108.452 211.391C112.82 233.437 122.072 254.117 135.422 271.961C142.503 281.425 156.209 281.337 164.58 272.966L240.363 197.183L172.323 57.4336C147.655 73.9269 128.421 97.3572 117.052 124.761C105.683 152.166 102.69 182.313 108.452 211.391Z"/>
<path d="M255.637 32.1013C225.985 32.1245 196.991 40.9402 172.323 57.4336L240.363 197.183C248.734 188.812 262.295 188.802 270.652 197.159L346.317 272.824C354.674 281.181 368.38 281.248 375.476 271.772C388.854 253.908 398.138 233.213 402.541 211.16C408.349 182.073 405.404 151.93 394.078 124.544C382.752 97.1575 363.554 73.7575 338.911 57.3028C314.269 40.8481 285.29 32.078 255.637 32.1013Z"/>
</mask>
<path d="M332.121 375.927C340.479 384.285 340.468 397.846 332.097 406.217L271.471 466.843C263.1 475.214 249.539 475.225 241.181 466.867L180.65 406.336C172.292 397.978 172.303 384.417 180.673 376.046L197.807 358.913C206.178 350.542 219.739 350.531 228.097 358.889L241.256 372.048C249.613 380.405 263.174 380.395 271.545 372.024L284.725 358.844C293.096 350.473 306.657 350.463 315.014 358.821L332.121 375.927Z" fill="#FCD34D"/>
<path d="M108.452 211.391C112.82 233.437 122.072 254.117 135.422 271.961C142.503 281.425 156.209 281.337 164.58 272.966L240.363 197.183L172.323 57.4336C147.655 73.9269 128.421 97.3572 117.052 124.761C105.683 152.166 102.69 182.313 108.452 211.391Z" fill="#3B82F6"/>
<path d="M255.637 32.1013C225.985 32.1245 196.991 40.9402 172.323 57.4336L240.363 197.183C248.734 188.812 262.295 188.802 270.652 197.159L346.317 272.824C354.674 281.181 368.38 281.248 375.476 271.772C388.854 253.908 398.138 233.213 402.541 211.16C408.349 182.073 405.404 151.93 394.078 124.544C382.752 97.1575 363.554 73.7575 338.911 57.3028C314.269 40.8481 285.29 32.078 255.637 32.1013Z" fill="#10B981"/>
<path d="M251.152 191.93L183.112 52.1806L161.534 62.6865L229.574 202.436L251.152 191.93ZM108.452 211.391L131.994 206.726L131.994 206.726L108.452 211.391ZM402.541 211.16L379.006 206.461L379.006 206.461L402.541 211.16ZM270.652 197.159L253.682 214.13L270.652 197.159ZM375.476 271.772L394.687 286.158L375.476 271.772ZM346.317 272.824L363.287 255.853L346.317 272.824ZM135.422 271.961L154.639 257.583L154.639 257.583L135.422 271.961ZM154.639 257.583C143.431 242.603 135.663 225.239 131.994 206.726L84.9097 216.056C89.9783 241.634 100.713 265.631 116.205 286.338L154.639 257.583ZM131.994 206.726C127.155 182.307 129.667 156.983 139.22 133.958L94.8836 115.565C81.6978 147.348 78.2244 182.319 84.9097 216.056L131.994 206.726ZM139.22 133.958C148.772 110.933 164.934 91.2442 185.663 77.3848L158.984 37.4823C130.376 56.6096 108.069 83.7818 94.8836 115.565L139.22 133.958ZM185.663 77.3848C206.391 63.5256 230.75 56.1208 255.656 56.1012L255.618 8.10126C221.22 8.12826 187.591 18.3548 158.984 37.4823L185.663 77.3848ZM255.656 56.1012C280.562 56.0817 304.896 63.4476 325.584 77.2621L352.239 37.3435C323.643 18.2486 290.018 8.07425 255.618 8.10126L255.656 56.1012ZM325.584 77.2621C346.272 91.0764 362.39 110.722 371.899 133.716L416.256 115.372C403.113 83.5934 380.835 56.4385 352.239 37.3435L325.584 77.2621ZM371.899 133.716C381.409 156.711 383.885 182.026 379.006 206.461L426.077 215.859C432.813 182.12 429.398 147.15 416.256 115.372L371.899 133.716ZM379.006 206.461C375.307 224.986 367.507 242.375 356.265 257.386L394.687 286.158C410.201 265.44 420.969 241.439 426.077 215.859L379.006 206.461ZM363.287 255.853L287.623 180.189L253.682 214.13L329.346 289.794L363.287 255.853ZM223.392 180.213L147.609 255.996L181.55 289.937L257.333 214.154L223.392 180.213ZM287.623 180.189C269.868 162.434 241.111 162.494 223.392 180.213L257.333 214.154C256.357 215.13 254.722 215.17 253.682 214.13L287.623 180.189ZM356.265 257.386C356.766 256.718 357.519 256.064 358.447 255.604C359.336 255.163 360.168 255.007 360.818 254.992C362.049 254.963 362.854 255.42 363.287 255.853L329.346 289.794C346.332 306.78 377.447 309.18 394.687 286.158L356.265 257.386ZM116.205 286.338C133.477 309.424 164.613 306.874 181.55 289.937L147.609 255.996C148.018 255.587 148.801 255.131 150.031 255.157C150.682 255.171 151.521 255.327 152.422 255.772C153.362 256.237 154.129 256.901 154.639 257.583L116.205 286.338ZM315.127 389.246L254.5 449.873L288.441 483.814L349.068 423.187L315.127 389.246ZM298.044 375.791L315.15 392.898L349.092 358.957L331.985 341.85L298.044 375.791ZM197.644 393.017L214.778 375.883L180.836 341.942L163.703 359.076L197.644 393.017ZM211.126 375.859L224.285 389.018L258.226 355.077L245.067 341.918L211.126 375.859ZM288.516 388.995L301.695 375.815L267.754 341.874L254.574 355.053L288.516 388.995ZM214.778 375.883C213.801 376.86 212.166 376.899 211.126 375.859L245.067 341.918C227.312 324.163 198.555 324.224 180.836 341.942L214.778 375.883ZM224.285 389.018C242.04 406.774 270.797 406.713 288.516 388.995L254.574 355.053C255.551 354.077 257.186 354.037 258.226 355.077L224.285 389.018ZM331.985 341.85C314.229 324.095 285.472 324.155 267.754 341.874L301.695 375.815C300.719 376.792 299.084 376.831 298.044 375.791L331.985 341.85ZM254.5 449.873C255.477 448.896 257.112 448.856 258.152 449.897L224.211 483.838C241.966 501.593 270.723 501.532 288.441 483.814L254.5 449.873ZM197.62 389.365C198.66 390.405 198.621 392.04 197.644 393.017L163.703 359.076C145.985 376.794 145.924 405.551 163.679 423.306L197.62 389.365ZM349.068 423.187C366.786 405.469 366.847 376.712 349.092 358.957L315.15 392.898C314.11 391.858 314.15 390.223 315.127 389.246L349.068 423.187ZM258.152 449.897L197.62 389.365L163.679 423.306L224.211 483.838L258.152 449.897Z" fill="#4B5563" mask="url(#path-1-outside-1_1275_1171)"/>
</g>
<defs>
<clipPath id="clip0_1275_1171">
<rect width="512" height="512" fill="white"/>
</clipPath>
</defs>
</svg>
