<svg width="144" height="144" viewBox="0 0 144 144" fill="none" xmlns="http://www.w3.org/2000/svg">
<g clip-path="url(#clip0_1272_1172)">
<mask id="path-1-outside-1_1272_1172" maskUnits="userSpaceOnUse" x="-3.16654" y="-2.86501" width="149.907" height="149.907" fill="black">
<rect fill="white" x="-3.16654" y="-2.86501" width="149.907" height="149.907"/>
<path d="M93.3207 114.167C95.6713 116.518 95.6683 120.332 93.314 122.686L76.2628 139.737C73.9085 142.091 70.0945 142.094 67.7439 139.744L50.7194 122.719C48.3688 120.369 48.3718 116.555 50.7261 114.2L55.5449 109.382C57.8992 107.027 61.7133 107.024 64.0639 109.375L67.7648 113.076C70.1154 115.427 73.9295 115.424 76.2838 113.069L79.9905 109.362C82.3448 107.008 86.1589 107.005 88.5095 109.356L93.3207 114.167Z"/>
<path d="M30.4138 67.8912C31.6425 74.0916 34.2446 79.9079 37.9991 84.9264C39.9906 87.5882 43.8455 87.5636 46.1997 85.2093L67.5138 63.8953L48.3776 24.5907C41.4397 29.2295 36.03 35.8192 32.8325 43.5267C29.6349 51.2341 28.7932 59.713 30.4138 67.8912Z"/>
<path d="M71.8097 17.466C63.4699 17.4725 55.3155 19.9519 48.3776 24.5907L67.5138 63.8953C69.8681 61.541 73.6821 61.538 76.0327 63.8886L97.3133 85.1692C99.6639 87.5198 103.519 87.5384 105.514 84.8734C109.277 79.849 111.888 74.0286 113.126 67.8263C114.76 59.6455 113.931 51.1679 110.746 43.4655C107.561 35.7631 102.161 29.1818 95.2305 24.5539C88.2999 19.9261 80.1494 17.4594 71.8097 17.466Z"/>
</mask>
<path d="M93.3207 114.167C95.6713 116.518 95.6683 120.332 93.314 122.686L76.2628 139.737C73.9085 142.091 70.0945 142.094 67.7439 139.744L50.7194 122.719C48.3688 120.369 48.3718 116.555 50.7261 114.2L55.5449 109.382C57.8992 107.027 61.7133 107.024 64.0639 109.375L67.7648 113.076C70.1154 115.427 73.9295 115.424 76.2838 113.069L79.9905 109.362C82.3448 107.008 86.1589 107.005 88.5095 109.356L93.3207 114.167Z" fill="#FCD34D"/>
<path d="M30.4138 67.8912C31.6425 74.0916 34.2446 79.9079 37.9991 84.9264C39.9906 87.5882 43.8455 87.5636 46.1997 85.2093L67.5138 63.8953L48.3776 24.5907C41.4397 29.2295 36.03 35.8192 32.8325 43.5267C29.6349 51.2341 28.7932 59.713 30.4138 67.8912Z" fill="#3B82F6"/>
<path d="M71.8097 17.466C63.4699 17.4725 55.3155 19.9519 48.3776 24.5907L67.5138 63.8953C69.8681 61.541 73.6821 61.538 76.0327 63.8886L97.3133 85.1692C99.6639 87.5198 103.519 87.5384 105.514 84.8734C109.277 79.849 111.888 74.0286 113.126 67.8263C114.76 59.6455 113.931 51.1679 110.746 43.4655C107.561 35.7631 102.161 29.1818 95.2305 24.5539C88.2999 19.9261 80.1494 17.4594 71.8097 17.466Z" fill="#10B981"/>
<path d="M68.4129 63.4576L49.2767 24.153L47.4785 25.0284L66.6147 64.333L68.4129 63.4576ZM30.4138 67.8912L32.3757 67.5025L32.3757 67.5025L30.4138 67.8912ZM113.126 67.8263L111.165 67.4347L111.165 67.4347L113.126 67.8263ZM76.0327 63.8886L74.6185 65.3028L76.0327 63.8886ZM105.514 84.8734L107.115 86.0722L105.514 84.8734ZM97.3133 85.1692L98.7275 83.755L97.3133 85.1692ZM37.9991 84.9264L39.6006 83.7283L37.9991 84.9264ZM39.6006 83.7283C36.0245 78.9484 33.546 73.4084 32.3757 67.5025L28.452 68.28C29.7389 74.7747 32.4646 80.8674 36.3977 86.1245L39.6006 83.7283ZM32.3757 67.5025C30.832 59.7125 31.6337 51.6356 34.6798 44.293L30.9851 42.7603C27.6362 50.8326 26.7544 59.7135 28.452 68.28L32.3757 67.5025ZM34.6798 44.293C37.7259 36.9505 42.8797 30.6726 49.4893 26.2533L47.266 22.9281C39.9998 27.7864 34.334 34.6879 30.9851 42.7603L34.6798 44.293ZM49.4893 26.2533C56.0988 21.8341 63.867 19.4722 71.8112 19.466L71.8081 15.466C63.0728 15.4728 54.5322 18.0698 47.266 22.9281L49.4893 26.2533ZM71.8112 19.466C79.7554 19.4598 87.5188 21.8093 94.1199 26.2172L96.3412 22.8907C89.0811 18.0428 80.5434 15.4591 71.8081 15.466L71.8112 19.466ZM94.1199 26.2172C100.721 30.625 105.864 36.8934 108.898 44.2298L112.594 42.7012C109.257 34.6327 103.601 27.7386 96.3412 22.8907L94.1199 26.2172ZM108.898 44.2298C111.932 51.5663 112.721 59.6416 111.165 67.4347L115.088 68.2179C116.799 59.6495 115.931 50.7696 112.594 42.7012L108.898 44.2298ZM111.165 67.4347C109.985 73.3431 107.498 78.8879 103.913 83.6746L107.115 86.0722C111.056 80.8101 113.791 74.7141 115.088 68.2179L111.165 67.4347ZM98.7275 83.755L77.4469 62.4744L74.6185 65.3028L95.8991 86.5834L98.7275 83.755ZM66.0996 62.4811L44.7855 83.7951L47.614 86.6235L68.928 65.3095L66.0996 62.4811ZM77.4469 62.4744C74.3132 59.3407 69.2328 59.3479 66.0996 62.4811L68.928 65.3095C70.5033 63.7342 73.051 63.7354 74.6185 65.3028L77.4469 62.4744ZM103.913 83.6746C102.763 85.2107 100.359 85.3866 98.7275 83.755L95.8991 86.5834C98.9687 89.653 104.274 89.8661 107.115 86.0722L103.913 83.6746ZM36.3977 86.1245C39.2384 89.9215 44.5458 89.6917 47.614 86.6235L44.7855 83.7951C43.1451 85.4355 40.7428 85.255 39.6006 83.7283L36.3977 86.1245ZM91.8998 121.272L74.8486 138.323L77.677 141.151L94.7283 124.1L91.8998 121.272ZM87.0952 110.77L91.9065 115.581L94.7349 112.753L89.9237 107.942L87.0952 110.77ZM52.1403 115.615L56.9591 110.796L54.1307 107.967L49.3119 112.786L52.1403 115.615ZM62.6496 110.789L66.3506 114.49L69.179 111.662L65.4781 107.961L62.6496 110.789ZM77.698 114.483L81.4048 110.777L78.5763 107.948L74.8695 111.655L77.698 114.483ZM56.9591 110.796C58.5345 109.221 61.0822 109.222 62.6496 110.789L65.4781 107.961C62.3443 104.827 57.2639 104.834 54.1307 107.967L56.9591 110.796ZM66.3506 114.49C69.4843 117.624 74.5647 117.617 77.698 114.483L74.8695 111.655C73.2942 113.23 70.7465 113.229 69.179 111.662L66.3506 114.49ZM89.9237 107.942C86.7899 104.808 81.7096 104.815 78.5763 107.948L81.4048 110.777C82.9801 109.201 85.5278 109.203 87.0952 110.77L89.9237 107.942ZM74.8486 138.323C73.2733 139.898 70.7256 139.897 69.1581 138.33L66.3297 141.158C69.4634 144.292 74.5438 144.285 77.677 141.151L74.8486 138.323ZM52.1336 121.305C50.5662 119.738 50.565 117.19 52.1403 115.615L49.3119 112.786C46.1787 115.919 46.1715 121 49.3052 124.134L52.1336 121.305ZM94.7283 124.1C97.8615 120.967 97.8687 115.887 94.7349 112.753L91.9065 115.581C93.474 117.149 93.4751 119.696 91.8998 121.272L94.7283 124.1ZM69.1581 138.33L52.1336 121.305L49.3052 124.134L66.3297 141.158L69.1581 138.33Z" fill="#4B5563" mask="url(#path-1-outside-1_1272_1172)"/>
</g>
<defs>
<clipPath id="clip0_1272_1172">
<rect width="144" height="144" fill="white"/>
</clipPath>
</defs>
</svg>
