<svg width="192" height="192" viewBox="0 0 192 192" fill="none" xmlns="http://www.w3.org/2000/svg">
<path d="M80.25 144.765C87.7704 153.248 94.2609 158.625 96.375 158.625C98.4737 158.625 104.794 153.326 112.125 144.949L96.375 96.5546L80.25 144.765Z" fill="#FCD34D"/>
<path d="M96.375 96.5546C87.573 96.5546 80.4375 89.4191 80.4375 80.6171C80.4375 76.8589 81.7383 73.4045 83.9143 70.6796C86.8346 67.0226 91.3312 64.6796 96.375 64.6796H140.093C133.569 46.641 116.29 33.75 96 33.75C82.3522 33.75 70.0666 39.5826 61.5 48.8911C53.8167 57.2398 49.125 68.3845 49.125 80.625C49.125 103.09 66.4271 129.173 80.25 144.765L96.375 96.5546Z" fill="#3B82F6"/>
<path d="M112.312 80.6171C112.312 89.4191 105.177 96.5546 96.375 96.5546L112.125 144.949C125.753 129.38 142.875 103.179 142.875 80.625C142.875 77.9058 142.643 75.2407 142.199 72.6484C142.199 72.6484 114.27 72.6484 96.375 72.6484C96.375 80.6171 112.312 80.6171 112.312 80.6171Z" fill="#10B981"/>
</svg>
