<svg width="192" height="192" viewBox="0 0 192 192" fill="none" xmlns="http://www.w3.org/2000/svg">
<mask id="path-1-outside-1_1272_1172" maskUnits="userSpaceOnUse" x="-3.27925" y="-2.87716" width="197.99" height="197.99" fill="black">
<rect fill="white" x="-3.27925" y="-2.87716" width="197.99" height="197.99"/>
<path d="M124.428 152.223C127.562 155.357 127.558 160.442 124.419 163.581L101.684 186.316C98.5447 189.455 93.4593 189.459 90.3252 186.325L67.6259 163.626C64.4918 160.492 64.4958 155.406 67.6348 152.267L74.0599 145.842C77.1989 142.703 82.2843 142.699 85.4185 145.833L90.3531 150.768C93.4872 153.902 98.5726 153.898 101.712 150.759L106.654 145.817C109.793 142.678 114.878 142.674 118.013 145.808L124.428 152.223Z"/>
<path d="M40.5517 90.5217C42.1899 98.7888 45.6594 106.544 50.6655 113.235C53.3208 116.784 58.4606 116.752 61.5997 113.612L90.0184 85.1938L64.5035 32.7876C55.253 38.9727 48.04 47.759 43.7766 58.0356C39.5132 68.3122 38.391 79.6174 40.5517 90.5217Z"/>
<path d="M95.7462 23.288C84.6266 23.2968 73.754 26.6026 64.5035 32.7876L90.0184 85.1938C93.1574 82.0547 98.2428 82.0507 101.377 85.1849L129.751 113.559C132.885 116.693 138.025 116.718 140.686 113.165C145.702 106.465 149.184 98.7048 150.835 90.4351C153.013 79.5274 151.909 68.2239 147.661 57.954C143.414 47.6841 136.215 38.9091 126.974 32.7386C117.733 26.5681 106.866 23.2793 95.7462 23.288Z"/>
</mask>
<path d="M124.428 152.223C127.562 155.357 127.558 160.442 124.419 163.581L101.684 186.316C98.5447 189.455 93.4593 189.459 90.3252 186.325L67.6259 163.626C64.4918 160.492 64.4958 155.406 67.6348 152.267L74.0599 145.842C77.1989 142.703 82.2843 142.699 85.4185 145.833L90.3531 150.768C93.4872 153.902 98.5726 153.898 101.712 150.759L106.654 145.817C109.793 142.678 114.878 142.674 118.013 145.808L124.428 152.223Z" fill="#FCD34D"/>
<path d="M40.5517 90.5217C42.1899 98.7888 45.6594 106.544 50.6655 113.235C53.3208 116.784 58.4606 116.752 61.5997 113.612L90.0184 85.1938L64.5035 32.7876C55.253 38.9727 48.04 47.759 43.7766 58.0356C39.5132 68.3122 38.391 79.6174 40.5517 90.5217Z" fill="#3B82F6"/>
<path d="M95.7462 23.288C84.6266 23.2968 73.754 26.6026 64.5035 32.7876L90.0184 85.1938C93.1574 82.0547 98.2428 82.0507 101.377 85.1849L129.751 113.559C132.885 116.693 138.025 116.718 140.686 113.165C145.702 106.465 149.184 98.7048 150.835 90.4351C153.013 79.5274 151.909 68.2239 147.661 57.954C143.414 47.6841 136.215 38.9091 126.974 32.7386C117.733 26.5681 106.866 23.2793 95.7462 23.288Z" fill="#10B981"/>
<path d="M90.9175 84.756L65.4026 32.3499L63.6044 33.2254L89.1193 85.6315L90.9175 84.756ZM40.5517 90.5217L42.5136 90.1329L42.5136 90.1329L40.5517 90.5217ZM150.835 90.4351L148.874 90.0435L148.874 90.0435L150.835 90.4351ZM101.377 85.1849L99.9627 86.5991L101.377 85.1849ZM140.686 113.165L142.287 114.363L140.686 113.165ZM129.751 113.559L131.165 112.145L129.751 113.559ZM50.6655 113.235L52.2669 112.037L50.6655 113.235ZM52.2669 112.037C47.4393 105.584 44.0935 98.1056 42.5136 90.1329L38.5899 90.9105C40.2864 99.4719 43.8795 107.503 49.0641 114.433L52.2669 112.037ZM42.5136 90.1329C40.4298 79.6169 41.512 68.7136 45.6239 58.802L41.9293 57.2692C37.5145 67.9107 36.3522 79.6179 38.5899 90.9105L42.5136 90.1329ZM45.6239 58.802C49.7359 48.8903 56.6929 40.4158 65.6151 34.4503L63.3919 31.125C53.813 37.5296 46.344 46.6277 41.9293 57.2692L45.6239 58.802ZM65.6151 34.4503C74.5373 28.4848 85.0237 25.2965 95.7478 25.288L95.7447 21.288C84.2295 21.2971 72.9707 24.7205 63.3919 31.125L65.6151 34.4503ZM95.7478 25.288C106.472 25.2796 116.952 28.4514 125.863 34.4019L128.085 31.0753C118.514 24.6848 107.26 21.279 95.7447 21.288L95.7478 25.288ZM125.863 34.4019C134.775 40.3524 141.717 48.8145 145.813 58.7184L149.51 57.1897C145.111 46.5538 137.655 37.4659 128.085 31.0753L125.863 34.4019ZM145.813 58.7184C149.909 68.6223 150.974 79.5235 148.874 90.0435L152.796 90.8267C155.052 79.5314 153.908 67.8256 149.51 57.1897L145.813 58.7184ZM148.874 90.0435C147.281 98.0193 143.923 105.504 139.085 111.966L142.287 114.363C147.481 107.426 151.087 99.3903 152.796 90.8267L148.874 90.0435ZM131.165 112.145L102.791 83.7707L99.9627 86.5991L128.337 114.973L131.165 112.145ZM88.6041 83.7796L60.1854 112.198L63.0139 115.027L91.4326 86.608L88.6041 83.7796ZM102.791 83.7707C98.8739 79.8534 92.5221 79.8616 88.6041 83.7796L91.4326 86.608C93.7927 84.2479 97.6117 84.2481 99.9627 86.5991L102.791 83.7707ZM139.085 111.966C137.269 114.39 133.58 114.56 131.165 112.145L128.337 114.973C132.19 118.826 138.78 119.046 142.287 114.363L139.085 111.966ZM49.0641 114.433C52.5686 119.118 59.1609 118.88 63.0139 115.027L60.1854 112.198C57.7603 114.623 54.0729 114.451 52.2669 112.037L49.0641 114.433ZM123.004 162.167L100.27 184.902L103.098 187.731L125.833 164.996L123.004 162.167ZM116.598 147.222L123.013 153.637L125.842 150.809L119.427 144.394L116.598 147.222ZM69.049 153.682L75.4741 147.256L72.6457 144.428L66.2206 150.853L69.049 153.682ZM84.0042 147.248L88.9389 152.182L91.7673 149.354L86.8327 144.419L84.0042 147.248ZM103.126 152.173L108.068 147.231L105.24 144.402L100.297 149.345L103.126 152.173ZM75.4741 147.256C77.8342 144.896 81.6533 144.897 84.0042 147.248L86.8327 144.419C82.9154 140.502 76.5637 140.51 72.6457 144.428L75.4741 147.256ZM88.9389 152.182C92.8561 156.099 99.2079 156.091 103.126 152.173L100.297 149.345C97.9374 151.705 94.1183 151.705 91.7673 149.354L88.9389 152.182ZM119.427 144.394C115.51 140.476 109.158 140.484 105.24 144.402L108.068 147.231C110.428 144.871 114.247 144.871 116.598 147.222L119.427 144.394ZM100.27 184.902C97.9094 187.262 94.0904 187.262 91.7394 184.911L88.911 187.739C92.8282 191.657 99.18 191.648 103.098 187.731L100.27 184.902ZM69.0401 162.212C66.6891 159.861 66.6889 156.042 69.049 153.682L66.2206 150.853C62.3026 154.771 62.2944 161.123 66.2117 165.04L69.0401 162.212ZM125.833 164.996C129.751 161.078 129.759 154.726 125.842 150.809L123.013 153.637C125.364 155.988 125.365 159.807 123.004 162.167L125.833 164.996ZM91.7394 184.911L69.0401 162.212L66.2117 165.04L88.911 187.739L91.7394 184.911Z" fill="#4B5563" mask="url(#path-1-outside-1_1272_1172)"/>
</svg>
