<svg width="25" height="24" viewBox="0 0 25 24" fill="none" xmlns="http://www.w3.org/2000/svg">
<g clip-path="url(#clip0_1212_1238)">
<path d="M2.96534 13.63C2.78597 12.5507 2.78597 11.4493 2.96534 10.37C4.06734 10.396 5.05734 9.86801 5.44234 8.93901C5.82734 8.00901 5.50034 6.93501 4.70234 6.17601C5.33875 5.2853 6.1179 4.50581 7.00834 3.86901C7.76834 4.66701 8.84234 4.99401 9.77234 4.60901C10.7023 4.22401 11.2293 3.23301 11.2023 2.13201C12.2823 1.95242 13.3844 1.95242 14.4643 2.13201C14.4373 3.23401 14.9653 4.22401 15.8943 4.60901C16.8243 4.99401 17.8983 4.66701 18.6573 3.86901C19.5481 4.50542 20.3275 5.28458 20.9643 6.17501C20.1663 6.93501 19.8393 8.00901 20.2243 8.93901C20.6093 9.86901 21.6003 10.396 22.7013 10.369C22.8809 11.4489 22.8809 12.5511 22.7013 13.631C21.5993 13.604 20.6093 14.132 20.2243 15.061C19.8393 15.991 20.1663 17.065 20.9643 17.824C20.3279 18.7147 19.5488 19.4942 18.6583 20.131C17.8983 19.333 16.8243 19.006 15.8943 19.391C14.9643 19.776 14.4373 20.767 14.4643 21.868C13.3844 22.0476 12.2823 22.0476 11.2023 21.868C11.2293 20.766 10.7013 19.776 9.77234 19.391C8.84234 19.006 7.76834 19.333 7.00934 20.131C6.11863 19.4946 5.33914 18.7154 4.70234 17.825C5.50034 17.065 5.82734 15.991 5.44234 15.061C5.05734 14.131 4.06634 13.604 2.96534 13.631V13.63ZM12.8333 15C13.629 15 14.3921 14.6839 14.9547 14.1213C15.5173 13.5587 15.8333 12.7957 15.8333 12C15.8333 11.2044 15.5173 10.4413 14.9547 9.87869C14.3921 9.31608 13.629 9.00001 12.8333 9.00001C12.0377 9.00001 11.2746 9.31608 10.712 9.87869C10.1494 10.4413 9.83334 11.2044 9.83334 12C9.83334 12.7957 10.1494 13.5587 10.712 14.1213C11.2746 14.6839 12.0377 15 12.8333 15Z" fill="#1F2937"/>
</g>
<defs>
<clipPath id="clip0_1212_1238">
<rect width="24" height="24" fill="white" transform="translate(0.833344)"/>
</clipPath>
</defs>
</svg>
