<svg width="49" height="48" viewBox="0 0 49 48" fill="none" xmlns="http://www.w3.org/2000/svg">
<g clip-path="url(#clip0_1302_1372)">
<path d="M32.5 8C33.0304 8 33.5391 8.21071 33.9142 8.58579C34.2893 8.96086 34.5 9.46957 34.5 10V18.4L44.926 11.1C45.0759 10.9949 45.2518 10.933 45.4345 10.921C45.6172 10.909 45.7997 10.9474 45.962 11.032C46.1244 11.1166 46.2604 11.2441 46.3553 11.4007C46.4502 11.5573 46.5002 11.7369 46.5 11.92V36.08C46.5002 36.2631 46.4502 36.4427 46.3553 36.5993C46.2604 36.7559 46.1244 36.8834 45.962 36.968C45.7997 37.0526 45.6172 37.091 45.4345 37.079C45.2518 37.067 45.0759 37.0051 44.926 36.9L34.5 29.6V38C34.5 38.5304 34.2893 39.0391 33.9142 39.4142C33.5391 39.7893 33.0304 40 32.5 40H4.5C3.96957 40 3.46086 39.7893 3.08579 39.4142C2.71071 39.0391 2.5 38.5304 2.5 38V10C2.5 9.46957 2.71071 8.96086 3.08579 8.58579C3.46086 8.21071 3.96957 8 4.5 8H32.5ZM15.3 17.658C15.1156 17.658 14.9368 17.7216 14.7939 17.8383C14.6511 17.9549 14.5529 18.1173 14.516 18.298L14.5 18.456V29.54C14.5 29.6696 14.5314 29.7972 14.5916 29.9119C14.6518 30.0266 14.739 30.125 14.8456 30.1986C14.9523 30.2721 15.0752 30.3187 15.2038 30.3343C15.3324 30.3499 15.4629 30.334 15.584 30.288L15.73 30.216L24.44 24.672C24.5416 24.607 24.6272 24.5198 24.6904 24.417C24.7536 24.3143 24.7927 24.1985 24.8048 24.0785C24.8169 23.9584 24.8018 23.8372 24.7604 23.7239C24.719 23.6105 24.6526 23.508 24.566 23.424L24.44 23.324L15.73 17.78C15.601 17.7 15.4518 17.6584 15.3 17.66V17.658Z" fill="#FCD34D"/>
</g>
<defs>
<clipPath id="clip0_1302_1372">
<rect width="48" height="48" fill="white" transform="translate(0.5)"/>
</clipPath>
</defs>
</svg>
